PathFileType	4	(X/Y/Z)	/Users/niels/Desktop/University/Third Semester/Perception and Action/Exam/Gymnastics Motion Tracking/Code for Gym Tracking/Analyzed Data/Webcam_Backflip/id1_2_trajectory_Sports2D/id1_2_trajectory_Sports2D_px_person00.trc
DataRate	CameraRate	NumFrames	NumMarkers	Units	OrigDataRate	OrigDataStartFrame	OrigNumFrames
29.92822966507177	29.92822966507177	8	22	m	29.92822966507177	209	418
Frame#	Time	Hip			RHip			RKnee			RAnkle			RBigToe			RSmallToe			RHeel			LHip			LKnee			LAnkle			LBigToe			LSmallToe			LHeel			Neck			Head			Nose			RShoulder			RElbow			RWrist			LShoulder			LElbow			LWrist		
		X1	Y1	Z1	X2	Y2	Z2	X3	Y3	Z3	X4	Y4	Z4	X5	Y5	Z5	X6	Y6	Z6	X7	Y7	Z7	X8	Y8	Z8	X9	Y9	Z9	X10	Y10	Z10	X11	Y11	Z11	X12	Y12	Z12	X13	Y13	Z13	X14	Y14	Z14	X15	Y15	Z15	X16	Y16	Z16	X17	Y17	Z17	X18	Y18	Z18	X19	Y19	Z19	X20	Y20	Z20	X21	Y21	Z21	X22	Y22	Z22
209	6.983373301358913	0.8248583997669158	-0.6119093201984975	0.0	0.7877904496393214	-0.6181482422312141	0.0	0.7817111488706643	-0.8545885737685308	0.0	0.7605513067695555	-1.0568072162417355	0.0	0.842630227169473	-1.0767070917222799	0.0	0.8101023976119579	-1.0786384402411306	0.0	0.7396965943753339	-1.0721695493217382	0.0	0.8612278076974474	-0.6114260200536313	0.0	0.8520762991591866	-0.8381225977176384	0.0	0.8115913896334918	-1.0328502209585113	0.0	0.8968181540352881	-1.0650174155138195	0.0	0.8877175621509709	-1.053014514863008	0.0	0.7964504542067742	-1.049500332306231	0.0	0.8423029995932609	-0.2678253686460029	0.0	0.8610366087625914	-0.11146409191215471	0.0	0.870667080963202	-0.20161756353592605	0.0	0.7585578129183078	-0.3331857659940996	0.0	0.7109041918751037	-0.5161188124094673	0.0	0.7276978133964775	-0.6750280755616939	0.0	0.9091330673121393	-0.30297973538497835	0.0	0.9228598486797239	-0.4519421479308488	0.0	0.9318099105564934	-0.5621267960686532	0.0
210	7.016786570743405	0.8276292556904693	-0.6104459007782701	0.0	0.7896690135299522	-0.6165572903582872	0.0	0.7818771300588698	-0.8534172339691081	0.0	0.7597899963507719	-1.0566035610039535	0.0	0.8383808101930834	-1.0767809655192002	0.0	0.8041994465440955	-1.0775953940256138	0.0	0.7398313026865639	-1.071952452567038	0.0	0.8645017757373314	-0.6101780284462854	0.0	0.8557489249478872	-0.8381853272000998	0.0	0.8204508303309137	-1.03465343322529	0.0	0.9067441249948645	-1.0673800026316471	0.0	0.8968139636081237	-1.0553719412980211	0.0	0.8047569339254408	-1.0518816872493975	0.0	0.8434428680841902	-0.2655753393734302	0.0	0.861856122352221	-0.1097303407771964	0.0	0.8718399549009659	-0.19938969863910452	0.0	0.759271202985972	-0.33105818560696443	0.0	0.7121668231660425	-0.5141015973913349	0.0	0.7285582485300993	-0.6722156888296701	0.0	0.9103940409415489	-0.30190041747462476	0.0	0.9242648851501408	-0.4521443568604629	0.0	0.9337334095509641	-0.5624294094071522	0.0
211	7.050199840127897	0.8305417705101382	-0.6090780969955546	0.0	0.7914680733253932	-0.6153329285999979	0.0	0.7819826913874792	-0.8520297341741327	0.0	0.7590791170307861	-1.055759653739054	0.0	0.8333001698921535	-1.075959157663124	0.0	0.7975841437787033	-1.0759224624258221	0.0	0.740306650428622	-1.0709426163420017	0.0	0.8680422589145853	-0.6091637724683738	0.0	0.860437366278131	-0.8382071434512121	0.0	0.8307771969136413	-1.0365538408798491	0.0	0.9173802475479066	-1.0683444926335848	0.0	0.9066893709404066	-1.0564556969620307	0.0	0.814467288163625	-1.0537472716121044	0.0	0.8447894383597624	-0.2634956354476212	0.0	0.8626674388612646	-0.10820606485392219	0.0	0.8729594637836002	-0.1972749567340788	0.0	0.7597970935557171	-0.32930604217912657	0.0	0.7134519749842404	-0.5123931485417136	0.0	0.7294899935072505	-0.6693540281912467	0.0	0.9121028187604008	-0.3009566226600452	0.0	0.9259331380627929	-0.4522405868636738	0.0	0.9359356110558349	-0.562652900474219	0.0
212	7.08361310951239	0.833664012204748	-0.607946401289659	0.0	0.7932480948331677	-0.6145984516746626	0.0	0.7819139860463743	-0.8507409171741956	0.0	0.7584185066300885	-1.0545246961871202	0.0	0.8273702294205569	-1.074567119467224	0.0	0.7908766323518147	-1.0739602344747972	0.0	0.7410091613128407	-1.0693342815104228	0.0	0.8719621135047996	-0.6085717090409442	0.0	0.8663628980673136	-0.8381204575551396	0.0	0.8423603684005361	-1.0382868351650314	0.0	0.9282033345146599	-1.0683368203108403	0.0	0.9170836172183761	-1.0565618924398654	0.0	0.8254776195181823	-1.0548769775898335	0.0	0.8463055457353447	-0.26159205859549023	0.0	0.8634478858903379	-0.10686679045743486	0.0	0.8739244565645465	-0.1953467294204462	0.0	0.7601215490349452	-0.3281183173942379	0.0	0.7146779190134999	-0.5111289388294441	0.0	0.7304784516826912	-0.6665960943391902	0.0	0.9142025300519937	-0.30019681187856684	0.0	0.9278727395486567	-0.45227329113156595	0.0	0.9384980793152189	-0.562888954324242	0.0
213	7.117026378896883	0.8370414109811549	-0.6072048295234341	0.0	0.795124625195544	-0.6143603462572961	0.0	0.781623000912224	-0.8499012820123626	0.0	0.7578086682454306	-1.0531116719180282	0.0	0.8210447770510333	-1.0730382075177496	0.0	0.7848019992424926	-1.0721649703383624	0.0	0.741770838443996	-1.0674795917357762	0.0	0.8763207382229322	-0.6084415424976216	0.0	0.8734935647232115	-0.8379678209473411	0.0	0.8548899654770389	-1.0396227062564034	0.0	0.9386476918312445	-1.0679873520489245	0.0	0.9277433506773534	-1.056272770389192	0.0	0.8375241756276107	-1.0552708589488233	0.0	0.8479352977316132	-0.25983636426410156	0.0	0.8642405505769086	-0.10568195743103886	0.0	0.8747279423138336	-0.19361937616083422	0.0	0.7603107858156887	-0.3274761287867435	0.0	0.7157838480610975	-0.510342929837744	0.0	0.7314921511556317	-0.664144539880357	0.0	0.9166388344396202	-0.29970420206173226	0.0	0.9300744123906133	-0.4523392643046814	0.0	0.9414933241324174	-0.5632040915280009	0.0
214	7.150439648281375	0.8406018289834966	-0.6068323512211657	0.0	0.7971775512954404	-0.6144226978699947	0.0	0.7812156502217317	-0.8496630781081557	0.0	0.7572457293153054	-1.0517091686716673	0.0	0.8153777248116427	-1.0716801037538009	0.0	0.7801289190705437	-1.070921148341715	0.0	0.7424191393512426	-1.0658028375899484	0.0	0.8810078292367385	-0.6085481636121066	0.0	0.8815254395649539	-0.8377394276220244	0.0	0.8680267672098929	-1.0405673148520922	0.0	0.9481588575610339	-1.0678155980625204	0.0	0.9383621326651629	-1.056199186048346	0.0	0.8503447272032829	-1.055233268917142	0.0	0.8496496426196982	-0.2581951333284247	0.0	0.8651447106405908	-0.10461064177297465	0.0	0.8753973591858614	-0.1920501438500446	0.0	0.7605103517294896	-0.3271348859829911	0.0	0.7168243971963836	-0.5098774678427163	0.0	0.7324921098904665	-0.662108498619144	0.0	0.9193831444970997	-0.2995087492899309	0.0	0.9325382919694208	-0.45252866017592763	0.0	0.9449515071940722	-0.5635917586622328	0.0
215	7.183852917665867	0.8441842452178354	-0.6065484814253637	0.0	0.7994008177008592	-0.6144420806234852	0.0	0.7809354203891304	-0.849828745576851	0.0	0.7567099708345651	-1.0506068587380366	0.0	0.8115579477281363	-1.0707392803446907	0.0	0.7775141652439175	-1.0705407139410208	0.0	0.7427949600332365	-1.0647521649596114	0.0	0.8857741993385994	-0.6084903336024439	0.0	0.8899650592107241	-0.8372416046573374	0.0	0.8814738415253301	-1.0413018486407017	0.0	0.9562880511433001	-1.0680127460630897	0.0	0.9485587973121129	-1.0566875882290063	0.0	0.8637956363269501	-1.055222168063556	0.0	0.8514684994597912	-0.25665106742603855	0.0	0.8662703049498846	-0.10359785276140991	0.0	0.8759838395764133	-0.19061098349128677	0.0	0.7608326483574805	-0.32680766498040154	0.0	0.7179496541204416	-0.509441133184926	0.0	0.7334423603166458	-0.660441664289485	0.0	0.922442681083091	-0.29960484132754545	0.0	0.9352751812942502	-0.45289424184705646	0.0	0.948880852866757	-0.5639990214651398	0.0
216	7.21726618705036	0.8476633393149144	-0.6060170978174947	0.0	0.8017246857861354	-0.6141939271021862	0.0	0.7810142319425161	-0.8500159131652227	0.0	0.7561920877164511	-1.0500813860045743	0.0	0.8100628810405321	-1.070446722881846	0.0	0.7770433400115531	-1.0711774553013809	0.0	0.742836223761194	-1.0646190012636079	0.0	0.8904139809141629	-0.6080051908778139	0.0	0.8982691503549051	-0.8363089378134811	0.0	0.8949831237169832	-1.042003299704936	0.0	0.9628227725784207	-1.0684399161195055	0.0	0.9580145701541087	-1.0577050147091855	0.0	0.8777902587820067	-1.055585939587314	0.0	0.8534506091660118	-0.2552421679205278	0.0	0.8676832115131444	-0.10262934796301695	0.0	0.8766361113556638	-0.18934911098446017	0.0	0.761290578905182	-0.32636073138956234	0.0	0.7193057024699454	-0.5088276851762827	0.0	0.7343703107293755	-0.6590140666685047	0.0	0.9258743604311693	-0.300062114751813	0.0	0.9383208297092825	-0.4534811661025983	0.0	0.9533207685757074	-0.5643893728548622	0.0
